<svg xmlns="http://www.w3.org/2000/svg" width="145" height="145" viewBox="0 0 145 145">
  <g id="Groupe_114" data-name="Groupe 114" transform="translate(2877.086 -1087.914)">
    <rect id="Rectangle_48" data-name="Rectangle 48" width="145" height="145" transform="translate(-2877.086 1087.914)" fill="#f7f7f7"/>
    <g id="Groupe_102" data-name="Groupe 102" transform="translate(-2857.012 1109.806)">
      <g id="Groupe_75" data-name="Groupe 75" transform="translate(0 0)">
        <g id="Groupe_72" data-name="Groupe 72" transform="translate(8.238)">
          <g id="Groupe_71" data-name="Groupe 71">
            <path id="Tracé_114" data-name="Tracé 114" d="M188.065,169.838a10.572,10.572,0,1,1,10.573-10.572A10.584,10.584,0,0,1,188.065,169.838Zm0-19.247a8.675,8.675,0,1,0,8.675,8.675A8.685,8.685,0,0,0,188.065,150.59Z" transform="translate(-177.493 -148.693)"/>
          </g>
        </g>
        <g id="Groupe_74" data-name="Groupe 74" transform="translate(0 19.248)">
          <g id="Groupe_73" data-name="Groupe 73">
            <path id="Tracé_115" data-name="Tracé 115" d="M197.149,209.033H160.721a.6.6,0,0,1-.6-.6h0a19.04,19.04,0,0,1,18.357-19.157,18.83,18.83,0,0,1,19.263,18.8v.353A.6.6,0,0,1,197.149,209.033Zm-34.457-1.9h32.485a.6.6,0,0,0,.6-.642,16.913,16.913,0,0,0-33.677,0A.594.594,0,0,0,162.692,207.136Z" transform="translate(-160.125 -189.275)"/>
          </g>
        </g>
      </g>
      <g id="Groupe_80" data-name="Groupe 80" transform="translate(67.081 0)">
        <g id="Groupe_77" data-name="Groupe 77" transform="translate(8.237)">
          <g id="Groupe_76" data-name="Groupe 76">
            <path id="Tracé_116" data-name="Tracé 116" d="M329.5,169.838a10.572,10.572,0,1,1,10.573-10.572A10.584,10.584,0,0,1,329.5,169.838Zm0-19.247a8.675,8.675,0,1,0,8.675,8.675A8.685,8.685,0,0,0,329.5,150.59Z" transform="translate(-318.926 -148.693)"/>
          </g>
        </g>
        <g id="Groupe_79" data-name="Groupe 79" transform="translate(0 19.248)">
          <g id="Groupe_78" data-name="Groupe 78">
            <path id="Tracé_117" data-name="Tracé 117" d="M338.582,209.033H302.154a.6.6,0,0,1-.6-.6h0a19.04,19.04,0,0,1,18.356-19.157,18.83,18.83,0,0,1,19.263,18.8v.353A.6.6,0,0,1,338.582,209.033Zm-34.457-1.9h32.485a.594.594,0,0,0,.6-.642,16.913,16.913,0,0,0-33.676,0A.6.6,0,0,0,304.126,207.136Z" transform="translate(-301.559 -189.275)"/>
          </g>
        </g>
      </g>
      <g id="Groupe_85" data-name="Groupe 85" transform="translate(33.79 62.341)">
        <g id="Groupe_82" data-name="Groupe 82" transform="translate(8.237)">
          <g id="Groupe_81" data-name="Groupe 81">
            <path id="Tracé_118" data-name="Tracé 118" d="M259.307,301.278a10.572,10.572,0,1,1,10.572-10.572A10.584,10.584,0,0,1,259.307,301.278Zm0-19.248a8.675,8.675,0,1,0,8.675,8.675A8.685,8.685,0,0,0,259.307,282.03Z" transform="translate(-248.734 -280.133)"/>
          </g>
        </g>
        <g id="Groupe_84" data-name="Groupe 84" transform="translate(0 19.248)">
          <g id="Groupe_83" data-name="Groupe 83">
            <path id="Tracé_119" data-name="Tracé 119" d="M268.39,340.473H231.962a.6.6,0,0,1-.6-.6h0a19.04,19.04,0,0,1,18.356-19.157,18.83,18.83,0,0,1,19.263,18.8v.353A.6.6,0,0,1,268.39,340.473Zm-34.457-1.9h32.485a.594.594,0,0,0,.6-.642,16.913,16.913,0,0,0-33.676,0A.594.594,0,0,0,233.934,338.576Z" transform="translate(-231.367 -320.715)"/>
          </g>
        </g>
      </g>
      <g id="Groupe_87" data-name="Groupe 87" transform="translate(88.66 68.16)">
        <g id="Groupe_86" data-name="Groupe 86">
          <path id="Tracé_120" data-name="Tracé 120" d="M347.056,292.4" transform="translate(-347.056 -292.402)" fill="none" stroke="#000" stroke-miterlimit="10" stroke-width="4"/>
        </g>
      </g>
      <g id="Groupe_89" data-name="Groupe 89" transform="translate(75.318 49.361)">
        <g id="Groupe_88" data-name="Groupe 88" transform="translate(0)">
          <path id="Tracé_121" data-name="Tracé 121" d="M319.836,271.565a.911.911,0,0,1-.644-.265.9.9,0,0,1,0-1.277l17.127-16.994a.916.916,0,0,1,1.287,0,.9.9,0,0,1,0,1.277L320.479,271.3A.909.909,0,0,1,319.836,271.565Z" transform="translate(-318.926 -252.766)" fill="#f2081b"/>
        </g>
      </g>
      <g id="Groupe_91" data-name="Groupe 91" transform="translate(74.518 54.063)">
        <g id="Groupe_90" data-name="Groupe 90" transform="translate(0)">
          <path id="Tracé_122" data-name="Tracé 122" d="M331.329,277.725H318.144a.907.907,0,0,1-.906-.906v-13.14a.984.984,0,0,1,.789-.987.949.949,0,0,1,1.108.936v12.2H331.38a.949.949,0,0,1,.935,1.108A.984.984,0,0,1,331.329,277.725Z" transform="translate(-317.238 -262.679)" fill="#f2081b"/>
        </g>
      </g>
      <g id="Groupe_96" data-name="Groupe 96" transform="translate(38.146 0.311)">
        <g id="Groupe_93" data-name="Groupe 93" transform="translate(0 9.223)">
          <g id="Groupe_92" data-name="Groupe 92">
            <path id="Tracé_123" data-name="Tracé 123" d="M241.465,170.978a.949.949,0,0,1-.01-1.9l24.317-.286h.01a.949.949,0,0,1,.01,1.9l-24.317.286Z" transform="translate(-240.552 -168.795)" fill="#f2081b"/>
          </g>
        </g>
        <g id="Groupe_95" data-name="Groupe 95" transform="translate(15.816 0)">
          <g id="Groupe_94" data-name="Groupe 94">
            <path id="Tracé_124" data-name="Tracé 124" d="M275.082,169.872a.945.945,0,0,1-.719-.33.989.989,0,0,1,.082-1.324l8.487-8.682-8.719-8.524a.984.984,0,0,1-.154-1.255.95.95,0,0,1,1.443-.138l9.465,9.253a.906.906,0,0,1,.015,1.282l-9.222,9.432A.948.948,0,0,1,275.082,169.872Z" transform="translate(-273.899 -149.349)" fill="#f2081b"/>
          </g>
        </g>
      </g>
      <g id="Groupe_101" data-name="Groupe 101" transform="translate(12.002 50.796)">
        <g id="Groupe_98" data-name="Groupe 98" transform="translate(0.522 0.677)">
          <g id="Groupe_97" data-name="Groupe 97">
            <path id="Tracé_125" data-name="Tracé 125" d="M204.832,276.291a.923.923,0,0,1-.653-.268L186.8,258.784a.91.91,0,0,1,0-1.3.928.928,0,0,1,1.306,0l17.379,17.239a.91.91,0,0,1,0,1.3A.925.925,0,0,1,204.832,276.291Z" transform="translate(-186.529 -257.22)" fill="#f2081b"/>
          </g>
        </g>
        <g id="Groupe_100" data-name="Groupe 100" transform="translate(0)">
          <g id="Groupe_99" data-name="Groupe 99">
            <path id="Tracé_126" data-name="Tracé 126" d="M186.218,270.825a.984.984,0,0,1-.789-.987V256.7a.907.907,0,0,1,.906-.906h13.185a.984.984,0,0,1,.987.79.949.949,0,0,1-.936,1.107H187.326v12.2A.949.949,0,0,1,186.218,270.825Z" transform="translate(-185.429 -255.792)" fill="#f2081b"/>
          </g>
        </g>
      </g>
    </g>
  </g>
</svg>
