<svg xmlns="http://www.w3.org/2000/svg" width="145" height="145" viewBox="0 0 145 145">
  <g id="Groupe_113" data-name="Groupe 113" transform="translate(2874.642 -748.358)">
    <rect id="Rectangle_49" data-name="Rectangle 49" width="145" height="145" transform="translate(-2874.642 748.358)" fill="#f7f7f7"/>
    <g id="Groupe_112" data-name="Groupe 112" transform="translate(-2853.661 768.73)">
      <g id="Groupe_103" data-name="Groupe 103" transform="translate(8.923)">
        <path id="Tracé_127" data-name="Tracé 127" d="M747.712,506.275c-4.16,0-23.377-.667-41.093-12.273h0a1.046,1.046,0,0,1-.361-1.346h0a95.576,95.576,0,0,0,7.444-23.929c2.247-12.8,2.786-31.723-7.414-49.226h0a1.045,1.045,0,0,1,.152-1.254h0c.6-.619,14.982-15.145,42.021-15.833l1.072-.027V506.221l-1,.042C748.51,506.265,748.225,506.275,747.712,506.275Zm-38.4-13.037a77.525,77.525,0,0,0,38.127,10.946V404.539a66.649,66.649,0,0,0-29.119,7.809,52.31,52.31,0,0,0-9.192,6.26,1.035,1.035,0,0,0-.221,1.284c9.683,17.657,9.1,36.453,6.839,49.26a100.237,100.237,0,0,1-6.839,22.768A1.047,1.047,0,0,0,709.317,493.237Z" transform="translate(-706.146 -402.386)"/>
      </g>
      <g id="Groupe_104" data-name="Groupe 104" transform="translate(50.221)">
        <path id="Tracé_128" data-name="Tracé 128" d="M786.951,506.275c-.513,0-.8-.01-.821-.011l-1-.042V402.386l1.072.027c27.04.688,41.422,15.214,42.022,15.833h0a1.045,1.045,0,0,1,.152,1.254h0c-10.2,17.5-9.662,36.43-7.414,49.226a95.566,95.566,0,0,0,7.444,23.929h0a1.046,1.046,0,0,1-.361,1.346h0C810.329,505.607,791.113,506.275,786.951,506.275Zm.269-101.735v99.644c4.293-.026,21.651-.794,38.127-10.946a1.047,1.047,0,0,0,.4-1.318,100.239,100.239,0,0,1-6.839-22.768c-2.258-12.806-2.845-31.6,6.836-49.254a1.038,1.038,0,0,0-.224-1.289C821.646,415.268,808.454,405.392,787.219,404.539Z" transform="translate(-785.128 -402.386)"/>
      </g>
      <g id="Groupe_105" data-name="Groupe 105" transform="translate(91.585 15.702)">
        <path id="Tracé_129" data-name="Tracé 129" d="M874.185,508.66a1.045,1.045,0,0,1-.934-.574,95.7,95.7,0,0,1-7.626-24.447c-2.32-13.156-2.876-32.633,7.655-50.7a1.046,1.046,0,1,1,1.807,1.053c-10.2,17.5-9.661,36.429-7.413,49.225a95.555,95.555,0,0,0,7.444,23.929,1.045,1.045,0,0,1-.933,1.517Z" transform="translate(-864.237 -432.417)" fill="#f2081b"/>
      </g>
      <g id="Groupe_106" data-name="Groupe 106" transform="translate(65.275 3.632)">
        <path id="Tracé_130" data-name="Tracé 130" d="M821.13,505.928a1.047,1.047,0,0,1-.991-.712c-.136-.405-13.522-41.18-.6-95.083a1.046,1.046,0,1,1,2.034.488c-12.778,53.286.41,93.527.544,93.927a1.044,1.044,0,0,1-.991,1.379Z" transform="translate(-813.919 -409.332)"/>
      </g>
      <g id="Groupe_107" data-name="Groupe 107" transform="translate(28.999 3.662)">
        <path id="Tracé_131" data-name="Tracé 131" d="M745.587,505.986a1.046,1.046,0,0,1-.991-1.38c.135-.4,13.323-40.641.544-93.927a1.046,1.046,0,1,1,2.034-.488c12.926,53.9-.46,94.678-.6,95.083A1.046,1.046,0,0,1,745.587,505.986Z" transform="translate(-744.541 -409.389)"/>
      </g>
      <g id="Groupe_108" data-name="Groupe 108" transform="translate(0 15.702)">
        <path id="Tracé_132" data-name="Tracé 132" d="M690.125,508.66a1.045,1.045,0,0,1-.933-1.517,95.554,95.554,0,0,0,7.444-23.929c2.248-12.8,2.786-31.722-7.413-49.225a1.045,1.045,0,1,1,1.806-1.053c10.531,18.07,9.976,37.547,7.655,50.7a95.717,95.717,0,0,1-7.626,24.447A1.045,1.045,0,0,1,690.125,508.66Z" transform="translate(-689.08 -432.417)" fill="#f2081b"/>
      </g>
      <g id="Groupe_109" data-name="Groupe 109" transform="translate(17.843 50.884)">
        <path id="Tracé_133" data-name="Tracé 133" d="M789.006,501.794H724.25a1.046,1.046,0,0,1,0-2.091h64.756a1.046,1.046,0,1,1,0,2.091Z" transform="translate(-723.204 -499.702)"/>
      </g>
      <g id="Groupe_110" data-name="Groupe 110" transform="translate(14.226 71.091)">
        <path id="Tracé_134" data-name="Tracé 134" d="M717.334,546.631a1.046,1.046,0,0,1-.423-2c.318-.141,7.955-3.473,20.8-5.242a119.654,119.654,0,0,1,51.976,4.63,1.046,1.046,0,0,1-.628,2,117.556,117.556,0,0,0-50.978-4.566c-12.573,1.721-20.245,5.061-20.32,5.095A1.038,1.038,0,0,1,717.334,546.631Z" transform="translate(-716.287 -538.349)"/>
      </g>
      <g id="Groupe_111" data-name="Groupe 111" transform="translate(14.226 25.71)">
        <path id="Tracé_135" data-name="Tracé 135" d="M753.133,459.84a113.321,113.321,0,0,1-15.427-1.038c-12.84-1.768-20.477-5.1-20.8-5.242a1.045,1.045,0,0,1,.845-1.913c.3.133,30.848,13.254,71.3.529a1.046,1.046,0,0,1,.628,2A121.752,121.752,0,0,1,753.133,459.84Z" transform="translate(-716.287 -451.558)"/>
      </g>
    </g>
  </g>
</svg>
