<svg xmlns="http://www.w3.org/2000/svg" width="145" height="145" viewBox="0 0 145 145">
  <g id="Groupe_118" data-name="Groupe 118" transform="translate(2877 -2243)">
    <rect id="Rectangle_44" data-name="Rectangle 44" width="145" height="145" transform="translate(-2877 2243)" fill="#f7f7f7"/>
    <g id="Groupe_70" data-name="Groupe 70" transform="translate(-2856.383 2250.277)">
      <g id="Groupe_64" data-name="Groupe 64" transform="translate(10.44 11.179)">
        <path id="Tracé_108" data-name="Tracé 108" d="M467.7,242.71a39.338,39.338,0,1,1,39.338-39.339A39.383,39.383,0,0,1,467.7,242.71Zm0-76.251a36.913,36.913,0,1,0,36.912,36.912A36.954,36.954,0,0,0,467.7,166.459Z" transform="translate(-428.366 -164.033)"/>
      </g>
      <g id="Groupe_65" data-name="Groupe 65" transform="translate(25.501 26.24)">
        <path id="Tracé_109" data-name="Tracé 109" d="M477.481,237.424a24.277,24.277,0,1,1,24.277-24.277A24.3,24.3,0,0,1,477.481,237.424Zm0-46.128a21.851,21.851,0,1,0,21.851,21.851A21.877,21.877,0,0,0,477.481,191.3Z" transform="translate(-453.204 -188.871)"/>
      </g>
      <g id="Groupe_66" data-name="Groupe 66" transform="translate(0 49.304)">
        <path id="Tracé_110" data-name="Tracé 110" d="M509.9,229.332H412.363a1.213,1.213,0,1,1,0-2.426H509.9a1.213,1.213,0,1,1,0,2.426Z" transform="translate(-411.15 -226.906)"/>
      </g>
      <g id="Groupe_67" data-name="Groupe 67" transform="translate(48.768 0)">
        <path id="Tracé_111" data-name="Tracé 111" d="M492.787,246.631a1.213,1.213,0,0,1-1.213-1.213V146.811a1.213,1.213,0,1,1,2.426,0v98.608A1.213,1.213,0,0,1,492.787,246.631Z" transform="translate(-491.574 -145.598)"/>
      </g>
      <g id="Groupe_68" data-name="Groupe 68" transform="translate(51.801 50.424)">
        <path id="Tracé_112" data-name="Tracé 112" d="M556.108,308.3a1.207,1.207,0,0,1-.168-.011,84.154,84.154,0,0,1-15.094-3.835c-10.751-3.836-17.754-9.024-20.813-15.419-2.963-6.192-2.073-13.318,2.644-21.179,4.678-7.794,5.689-14.658,3-20.4-5.921-12.669-27.86-16.255-28.082-16.29a1.213,1.213,0,0,1,.376-2.4c.953.149,23.429,3.817,29.9,17.654,3.049,6.52,2,14.151-3.119,22.681-4.271,7.118-5.125,13.471-2.538,18.882,6.665,13.938,33.78,17.862,34.053,17.9a1.213,1.213,0,0,1-.165,2.415Z" transform="translate(-496.577 -228.753)" fill="#f2081b"/>
      </g>
      <g id="Groupe_69" data-name="Groupe 69" transform="translate(50.243 42.836)">
        <path id="Tracé_113" data-name="Tracé 113" d="M498.457,246.755a1.212,1.212,0,0,1-1.2-1.025l-3.233-20.705a1.782,1.782,0,0,1,1.278-1.991l23.972-6.75a1.215,1.215,0,0,1,1.523.957,1.263,1.263,0,0,1-.935,1.4l-21.831,6.148a1.782,1.782,0,0,0-1.278,1.991l2.9,18.578a1.212,1.212,0,0,1-1.011,1.386A1.246,1.246,0,0,1,498.457,246.755Z" transform="translate(-494.006 -216.239)" fill="#f2081b"/>
      </g>
    </g>
  </g>
</svg>
