<svg xmlns="http://www.w3.org/2000/svg" width="69.647" height="61.947" viewBox="0 0 69.647 61.947">
  <g id="noun_Tree_3676584" transform="translate(-2.2 -5.5)">
    <path id="Tracé_37" data-name="Tracé 37" d="M61.231,52.048A10.655,10.655,0,0,0,71.847,41.432a10.5,10.5,0,0,0-7-9.916,10.1,10.1,0,0,0,.7-3.733,10.753,10.753,0,0,0-8.866-10.5A12.207,12.207,0,0,0,44.548,5.5a11.805,11.805,0,0,0-7.583,2.683A11.805,11.805,0,0,0,29.382,5.5,12.127,12.127,0,0,0,17.366,17.4,10.66,10.66,0,0,0,8.5,27.9a10.1,10.1,0,0,0,.7,3.733,10.451,10.451,0,0,0-7,9.916A10.655,10.655,0,0,0,12.816,52.164H27.632V63.947H4.183a1.75,1.75,0,0,0,0,3.5h65.68a1.75,1.75,0,1,0,0-3.5H46.3v-11.9ZM44.548,9a8.564,8.564,0,0,1,8.516,8.516,1.985,1.985,0,0,1-.117.817V18.8a1.6,1.6,0,0,0,.467,1.4,1.873,1.873,0,0,0,1.283.583h.117A7.07,7.07,0,0,1,61.931,27.9a6.272,6.272,0,0,1-1.167,3.85,1.837,1.837,0,0,0,1.283,2.8,7.08,7.08,0,0,1-.817,14.116h-7.35c0-.117.117-.117.117-.233.117-.117.233-.233.233-.35a1.61,1.61,0,0,0,.35-.467c.117-.117.117-.233.233-.35a.884.884,0,0,0,.233-.467c.117-.117.117-.233.233-.35s.117-.35.233-.467.117-.233.233-.35c.117-.233.117-.35.233-.583,0-.117.117-.233.117-.35,0-.233.117-.35.117-.583,0-.117.117-.233.117-.35,0-.233.117-.467.117-.7v-1.4a10.5,10.5,0,0,0-7-9.916,9.955,9.955,0,0,0,.7-3.616,10.66,10.66,0,0,0-8.866-10.5c0-.583-.117-1.05-.117-1.633v-.35c-.117-.467-.233-1.05-.35-1.517,0-.117,0-.117-.117-.233a7.136,7.136,0,0,0-.583-1.4c0-.117,0-.117-.117-.233a8.7,8.7,0,0,0-.817-1.4.114.114,0,0,0-.117-.117A9.558,9.558,0,0,1,44.548,9ZM12.7,48.548a7.07,7.07,0,0,1-7.116-7.116,6.98,6.98,0,0,1,6.3-7,1.837,1.837,0,0,0,1.283-2.8A6.511,6.511,0,0,1,12,27.782a7.07,7.07,0,0,1,7.116-7.116h.233a1.8,1.8,0,0,0,1.75-1.983l-.117-.467c0-.233-.117-.467-.117-.817a8.507,8.507,0,0,1,14.816-5.716A8.292,8.292,0,0,1,37.9,17.516a4.376,4.376,0,0,1-.117,1.167,1.533,1.533,0,0,0,.35,1.4,1.873,1.873,0,0,0,1.283.583h.233a7.07,7.07,0,0,1,7.116,7.116,7.452,7.452,0,0,1-1.167,3.85,1.837,1.837,0,0,0,1.283,2.8,7.08,7.08,0,0,1-.817,14.116H31.132V43.765l6.65-4.083a1.781,1.781,0,1,0-1.867-3.033l-4.783,3.033v-5.25l6.766-4.2A1.781,1.781,0,0,0,36.032,27.2l-4.9,3.15v-7.7a1.75,1.75,0,1,0-3.5,0v7.583l-4.55-2.917a1.781,1.781,0,0,0-1.867,3.033l6.533,4.2v5.366l-4.783-3.033A1.781,1.781,0,1,0,21.1,39.915l6.65,4.2v4.666H12.7ZM31.132,63.831V52.048H42.8V63.831Z" fill="#1a1e27"/>
  </g>
</svg>
