<svg xmlns="http://www.w3.org/2000/svg" width="32" height="32" viewBox="0 0 32 32">
  <g id="Icon_ionic-logo-instagram" data-name="Icon ionic-logo-instagram" transform="translate(-4.5 -4.5)">
    <path id="Tracé_45" data-name="Tracé 45" d="M27.167,7.167a6.686,6.686,0,0,1,6.667,6.667V27.167a6.686,6.686,0,0,1-6.667,6.667H13.833a6.686,6.686,0,0,1-6.667-6.667V13.833a6.686,6.686,0,0,1,6.667-6.667H27.167m0-2.667H13.833A9.361,9.361,0,0,0,4.5,13.833V27.167A9.361,9.361,0,0,0,13.833,36.5H27.167A9.361,9.361,0,0,0,36.5,27.167V13.833A9.361,9.361,0,0,0,27.167,4.5Z" fill="#1a1e27"/>
    <path id="Tracé_46" data-name="Tracé 46" d="M25.313,12.375A1.688,1.688,0,1,1,27,10.688,1.683,1.683,0,0,1,25.313,12.375Z" transform="translate(4.048 0.952)" fill="#1a1e27"/>
    <path id="Tracé_47" data-name="Tracé 47" d="M18,13.5A4.5,4.5,0,1,1,13.5,18,4.5,4.5,0,0,1,18,13.5m0-2.25A6.75,6.75,0,1,0,24.75,18,6.752,6.752,0,0,0,18,11.25Z" transform="translate(2.5 2.5)" fill="#1a1e27"/>
  </g>
</svg>
