<svg xmlns="http://www.w3.org/2000/svg" width="90.278" height="91.563" viewBox="0 0 90.278 91.563">
  <g id="noun_School_Materials_2074209" data-name="noun_School Materials_2074209" transform="translate(1.129 1.941)">
    <g id="Groupe_11" data-name="Groupe 11" transform="translate(-1.129 -1.941)">
      <path id="Tracé_41" data-name="Tracé 41" d="M26.162,0a6.991,6.991,0,0,0-1.324.11,10.415,10.415,0,0,0-2.7.938L13.3,5.463A6.375,6.375,0,0,0,9.827,9.685a7.434,7.434,0,0,0,1.021,5.325l10.182,17.6C14.28,36.52,7.594,40.446.86,44.37A1.836,1.836,0,0,0,.225,46.8L9.938,63.575a1.835,1.835,0,0,0,2.4.635l20.17-11.755,7.064,12.224a4.734,4.734,0,0,0,1.6,1.628l16.2,9.382a1.861,1.861,0,0,0,2.649-1.518V54.745a1.776,1.776,0,0,0-.221-.883L52.707,41.224,73.291,28.863a1.837,1.837,0,0,0,.579-2.456L63.275,9.63a1.8,1.8,0,0,0-1.656-.8,1.774,1.774,0,0,0-.717.221c-6.615,3.842-13.179,7.691-19.784,11.534L31.543,3.532A6.618,6.618,0,0,0,27.459.138,5.565,5.565,0,0,0,26.162,0Zm-.055,3.532a2.373,2.373,0,0,1,.524.055c.622.15,1.181.543,1.821,1.683C37.465,21.587,46.619,37.6,55.659,53.724c-.039.024-2.511,1.516-13.576,8.278L13.911,13.245a4.03,4.03,0,0,1-.635-2.815A2.6,2.6,0,0,1,14.9,8.637l8.83-4.415a6.817,6.817,0,0,1,1.711-.635,3.272,3.272,0,0,1,.662-.055ZM21.775,8.8a1.857,1.857,0,0,0-1.242,2.677S36.013,37.856,45.257,53.862A1.766,1.766,0,1,0,48.292,52.1C39.034,36.067,23.569,9.685,23.569,9.685A1.812,1.812,0,0,0,21.775,8.8Zm39.43,4.167,8.719,13.824L50.968,38.161,42.856,23.675l2.87-1.683c.777,1.3,1.489,2.419,2.18,3.615a1.766,1.766,0,1,0,3.035-1.766c-.734-1.271-1.439-2.373-2.18-3.615l1.959-1.131c.6.809,1.2,1.617,1.767,2.31a1.478,1.478,0,0,0,.68.526,1.765,1.765,0,0,0,2-2.808c-.429-.522-.952-1.245-1.38-1.821l1.959-1.131c.9,1.387,2.052,3.279,2.87,4.332a1.78,1.78,0,1,0,2.814-2.18c-.474-.61-1.608-2.42-2.621-3.946ZM22.8,35.678l7.947,13.714L12.09,60.263,4.143,46.549l2.732-1.6c.777,1.3,1.489,2.419,2.18,3.615a1.842,1.842,0,0,0,2.5.809A1.842,1.842,0,0,0,12.09,46.8c-.734-1.271-1.439-2.373-2.18-3.615l1.959-1.131c.55.72,1.176,1.593,1.766,2.345a1.722,1.722,0,0,0,.469.386,1.826,1.826,0,0,0,2.263-.406,1.534,1.534,0,0,0-.014-2.149,20.473,20.473,0,0,0-1.42-1.97l1.9-1.131c1.022,1.562,2.234,3.134,2.814,4.139A1.766,1.766,0,1,0,22.686,41.5c-.763-1.321-1.906-2.84-2.787-4.139ZM56.487,57.338V71.08L44.925,64.4C53.075,59.422,56.332,57.433,56.487,57.338Z" transform="translate(0 17.931) rotate(-14)" fill="#1a1e27"/>
    </g>
  </g>
</svg>
