<svg xmlns="http://www.w3.org/2000/svg" width="41" height="30" viewBox="0 0 41 30">
  <path id="Icon_ionic-logo-youtube" data-name="Icon ionic-logo-youtube" d="M40.733,11.125a6.136,6.136,0,0,0-5.927-6.343c-4.437-.2-8.962-.281-13.583-.281H19.782c-4.613,0-9.146.078-13.583.281A6.149,6.149,0,0,0,.28,11.14C.08,13.921-.008,16.7,0,19.484q-.012,4.172.272,8.351A6.156,6.156,0,0,0,6.191,34.2c4.661.211,9.443.3,14.3.3q7.3.023,14.3-.3a6.157,6.157,0,0,0,5.927-6.367c.192-2.789.28-5.57.272-8.359Q41.022,15.3,40.733,11.125ZM16.579,27.147V11.8l11.613,7.671Z" transform="translate(0 -4.5)" fill="#1a1e27"/>
</svg>
