<svg xmlns="http://www.w3.org/2000/svg" width="145" height="145" viewBox="0 0 145 145">
  <g id="Groupe_119" data-name="Groupe 119" transform="translate(2875 -1416)">
    <rect id="Rectangle_47" data-name="Rectangle 47" width="145" height="145" transform="translate(-2875 1416)" fill="#f7f7f7"/>
    <g id="Groupe_55" data-name="Groupe 55" transform="translate(-2856.237 1463.815)">
      <g id="Groupe_47" data-name="Groupe 47" transform="translate(3.733 34.226)">
        <g id="Groupe_46" data-name="Groupe 46">
          <path id="Tracé_97" data-name="Tracé 97" d="M816.821,223.072l12.028-11.916a1.05,1.05,0,0,1,1.485.007l11.876,11.988a1.255,1.255,0,0,1,.171,1.6,1.211,1.211,0,0,1-1.845.147l-10.218-10.314a1.051,1.051,0,0,0-1.486-.007l-10.354,10.258a1.212,1.212,0,0,1-1.844-.164A1.256,1.256,0,0,1,816.821,223.072Z" transform="translate(-816.426 -210.851)" fill="#f2081b"/>
        </g>
      </g>
      <g id="Groupe_49" data-name="Groupe 49" transform="translate(73.458 34.226)">
        <g id="Groupe_48" data-name="Groupe 48">
          <path id="Tracé_98" data-name="Tracé 98" d="M932.021,223.072l12.029-11.916a1.05,1.05,0,0,1,1.485.007l11.876,11.988a1.256,1.256,0,0,1,.171,1.6,1.211,1.211,0,0,1-1.845.147l-10.218-10.314a1.05,1.05,0,0,0-1.485-.007l-10.354,10.258a1.212,1.212,0,0,1-1.844-.164A1.257,1.257,0,0,1,932.021,223.072Z" transform="translate(-931.626 -210.851)" fill="#f2081b"/>
        </g>
      </g>
      <g id="Groupe_50" data-name="Groupe 50" transform="translate(0 27.638)">
        <path id="Tracé_99" data-name="Tracé 99" d="M913.28,202.386H811.469a1.21,1.21,0,1,1,0-2.421H913.28a1.21,1.21,0,1,1,0,2.421Z" transform="translate(-810.258 -199.965)"/>
      </g>
      <g id="Groupe_52" data-name="Groupe 52" transform="translate(39.031 8.319)">
        <g id="Groupe_51" data-name="Groupe 51">
          <path id="Tracé_100" data-name="Tracé 100" d="M900.521,170.234,888.493,182.15a1.05,1.05,0,0,1-1.485-.007l-11.877-11.988a1.257,1.257,0,0,1-.171-1.6,1.211,1.211,0,0,1,1.845-.147l10.218,10.314a1.05,1.05,0,0,0,1.485.007l10.354-10.258a1.211,1.211,0,0,1,1.843.165A1.255,1.255,0,0,1,900.521,170.234Z" transform="translate(-874.745 -168.047)" fill="#f2081b"/>
        </g>
      </g>
      <g id="Groupe_54" data-name="Groupe 54" transform="translate(39.031 0)">
        <g id="Groupe_53" data-name="Groupe 53">
          <path id="Tracé_101" data-name="Tracé 101" d="M900.521,156.488,888.493,168.4a1.051,1.051,0,0,1-1.485-.007L875.131,156.41a1.256,1.256,0,0,1-.171-1.6,1.211,1.211,0,0,1,1.845-.147l10.218,10.314a1.05,1.05,0,0,0,1.485.007l10.354-10.258a1.211,1.211,0,0,1,1.843.164A1.255,1.255,0,0,1,900.521,156.488Z" transform="translate(-874.745 -154.302)" fill="#f2081b"/>
        </g>
      </g>
    </g>
  </g>
</svg>
