<svg xmlns="http://www.w3.org/2000/svg" width="145" height="145" viewBox="0 0 145 145">
  <g id="Groupe_117" data-name="Groupe 117" transform="translate(2877 -1970)">
    <rect id="Rectangle_45" data-name="Rectangle 45" width="145" height="145" transform="translate(-2877 1970)" fill="#f7f7f7"/>
    <g id="Groupe_63" data-name="Groupe 63" transform="translate(-2856.946 2019.831)">
      <g id="Groupe_61" data-name="Groupe 61" transform="translate(27.356 2.469)">
        <path id="Tracé_106" data-name="Tracé 106" d="M688.932,204.556l-23.787,41.2a1.182,1.182,0,0,0,1.023,1.773h47.574a1.182,1.182,0,0,0,1.024-1.773l-23.787-41.2A1.182,1.182,0,0,0,688.932,204.556Z" transform="translate(-664.984 -203.965)"/>
      </g>
      <g id="Groupe_62" data-name="Groupe 62" transform="translate(0)">
        <path id="Tracé_107" data-name="Tracé 107" d="M723.408,202.334H621.183a1.215,1.215,0,0,1,0-2.431H723.408a1.215,1.215,0,1,1,0,2.431Z" transform="translate(-619.968 -199.903)" fill="#f2081b"/>
      </g>
    </g>
  </g>
</svg>
