<svg xmlns="http://www.w3.org/2000/svg" width="19.13" height="20.073" viewBox="0 0 19.13 20.073">
  <g id="Groupe_122" data-name="Groupe 122" transform="translate(-997.971 -770.546)">
    <g id="Groupe_121" data-name="Groupe 121" transform="translate(997.971 770.546)">
      <path id="Tracé_136" data-name="Tracé 136" d="M1016.27,773.54h-5.212v-1.054a1.941,1.941,0,0,0-1.941-1.941h-3.161a1.941,1.941,0,0,0-1.941,1.941v1.054H998.8a.832.832,0,0,0,0,1.664h1.691v12.365a3.05,3.05,0,0,0,3.05,3.05h7.985a3.05,3.05,0,0,0,3.05-3.05V775.2h1.691a.832.832,0,0,0,0-1.664Zm-10.591-1.054a.277.277,0,0,1,.277-.277h3.161a.277.277,0,0,1,.277.277v1.054h-3.715Zm7.208,15.11a1.386,1.386,0,0,1-1.386,1.386h-7.957a1.386,1.386,0,0,1-1.386-1.386V775.2h10.757Z" transform="translate(-997.971 -770.546)"/>
      <path id="Tracé_137" data-name="Tracé 137" d="M1037.8,803.8a.832.832,0,0,0,.832-.832v-8.29a.832.832,0,0,0-1.664,0v8.29A.832.832,0,0,0,1037.8,803.8Z" transform="translate(-1026.158 -787.386)"/>
      <path id="Tracé_138" data-name="Tracé 138" d="M1022.8,803.8a.832.832,0,0,0,.832-.832v-8.29a.832.832,0,1,0-1.663,0v8.29A.832.832,0,0,0,1022.8,803.8Z" transform="translate(-1015.317 -787.386)"/>
    </g>
  </g>
</svg>
