<svg xmlns="http://www.w3.org/2000/svg" viewBox="0 0 197.97 138.03"><defs><style>.cls-1{fill:#fff;}.cls-2{fill:#d83030;}</style></defs><g id="Calque_2" data-name="Calque 2"><g id="logo"><path class="cls-1" d="M0,0H68Q91.1,0,108.75,8.38a63.87,63.87,0,0,1,27.41,24q9.75,15.57,9.76,36.68t-9.76,36.67a63.81,63.81,0,0,1-27.41,24Q91.1,138,68,138H0ZM66.06,101.75q15,0,24-8.58T99,69q0-15.58-9-24.16t-24-8.58H46.54v65.47Z"/><path class="cls-2" d="M153.31,130.83q-7.4-7.19-7.39-18.44t7.39-18.24q7.4-7,18.64-7t18.63,7q7.39,7,7.39,18.24t-7.39,18.44Q183.19,138,172,138T153.31,130.83Z"/></g></g></svg>