<svg id="Calque_2" data-name="Calque 2" xmlns="http://www.w3.org/2000/svg" width="136.377" height="33.698" viewBox="0 0 136.377 33.698">
  <g id="Calque_1" data-name="Calque 1" transform="translate(0 0)">
    <path id="Tracé_7" data-name="Tracé 7" d="M0,2.24H15.243A21.132,21.132,0,0,1,24.37,4.111a14.266,14.266,0,0,1,6.167,5.376,15.14,15.14,0,0,1,2.189,8.223,15.13,15.13,0,0,1-2.189,8.223,14.266,14.266,0,0,1-6.167,5.376,20.988,20.988,0,0,1-9.127,1.881H0Zm14.8,22.8a7.452,7.452,0,0,0,5.376-1.922,7.133,7.133,0,0,0,2.056-5.406,7.2,7.2,0,0,0-2.056-5.417A7.452,7.452,0,0,0,14.8,10.37H10.432V25.037Z" transform="translate(0 0.062)" fill="#1a1e27"/>
    <path id="Tracé_8" data-name="Tracé 8" d="M52.539,8.38v8.86a15.778,15.778,0,0,0-2.21-.175c-3.412,0-5.139,1.737-5.139,5.221v10.72H35.22V8.822h9.5v2.611Q47.328,8.38,52.539,8.38Z" transform="translate(0.98 0.233)" fill="#1a1e27"/>
    <path id="Tracé_9" data-name="Tracé 9" d="M75.189,11.239q3.361,2.847,3.361,8.767v13H69.3V29.822c-1.141,2.415-3.433,3.628-6.845,3.628a10.957,10.957,0,0,1-4.882-1.028,6.989,6.989,0,0,1-4.111-6.516,6.167,6.167,0,0,1,2.734-5.437q2.744-1.871,8.315-1.86h4.019q-.483-2.816-4.553-2.827a11.306,11.306,0,0,0-3.31.5,9.251,9.251,0,0,0-2.878,1.4L54.611,11.1A17.689,17.689,0,0,1,59.627,9.04a24.329,24.329,0,0,1,5.859-.73C69.71,8.382,72.958,9.338,75.189,11.239ZM67.377,26.862a3.227,3.227,0,0,0,1.233-1.727V23.46H66.144q-3.083,0-3.083,2.056A1.778,1.778,0,0,0,63.7,26.9a2.6,2.6,0,0,0,1.747.555,3.3,3.3,0,0,0,1.932-.6Z" transform="translate(1.488 0.231)" fill="#1a1e27"/>
    <path id="Tracé_10" data-name="Tracé 10" d="M92.932,10.381h5.262v7.3H93.24V33.24H83.25V17.679H79.94v-7.3h3.31v-.1a10,10,0,0,1,2.827-7.493Q88.913,0,94.032,0A17.3,17.3,0,0,1,97.31.308a9.425,9.425,0,0,1,2.652.884L97.567,8.13a5.437,5.437,0,0,0-2.251-.576,2.3,2.3,0,0,0-1.747.668,3.012,3.012,0,0,0-.637,2.056Z" transform="translate(2.225 0)" fill="#1a1e27"/>
    <path id="Tracé_11" data-name="Tracé 11" d="M120.273,32.3a12.437,12.437,0,0,1-6.167,1.285q-5.139,0-7.822-2.457t-2.744-7.359V17.6h-3.32V10.283h3.32V3.53h9.991v6.753h4.964v7.3h-4.934v6.1a2.4,2.4,0,0,0,.576,1.727,1.953,1.953,0,0,0,1.5.617,3.9,3.9,0,0,0,2.251-.658Z" transform="translate(2.789 0.098)" fill="#1a1e27"/>
    <path id="Tracé_12" data-name="Tracé 12" d="M122.985,31.465a5.509,5.509,0,0,1-1.665-4.111,5.365,5.365,0,0,1,1.665-4.111,6.321,6.321,0,0,1,8.346,0A5.365,5.365,0,0,1,133,27.354a5.509,5.509,0,0,1-1.665,4.111,6.167,6.167,0,0,1-8.346,0Z" transform="translate(3.376 0.603)" fill="#d83030"/>
  </g>
</svg>
