<svg xmlns="http://www.w3.org/2000/svg" width="564.158" height="139.4" viewBox="0 0 564.158 139.4">
  <g id="Calque_2" data-name="Calque 2" transform="translate(0 0)">
    <g id="Calque_1" data-name="Calque 1" transform="translate(0 0)">
      <path id="Tracé_19" data-name="Tracé 19" d="M0,2.254H63.055a87.419,87.419,0,0,1,37.757,7.738,59.016,59.016,0,0,1,25.511,22.237,62.63,62.63,0,0,1,9.056,34.015,62.587,62.587,0,0,1-9.056,34.015A59.016,59.016,0,0,1,100.812,122.5a86.823,86.823,0,0,1-37.757,7.781H0ZM61.227,96.56a30.826,30.826,0,0,0,22.237-7.951,29.508,29.508,0,0,0,8.5-22.365,29.763,29.763,0,0,0-8.5-22.407,30.826,30.826,0,0,0-22.237-7.951H43.157V96.56Z" transform="translate(0 7.271)" fill="#fff"/>
      <path id="Tracé_20" data-name="Tracé 20" d="M106.864,8.38V45.031a65.268,65.268,0,0,0-9.142-.723c-14.116,0-21.259,7.186-21.259,21.6v44.347H35.22V10.208H74.507v10.8Q85.307,8.38,106.864,8.38Z" transform="translate(114.531 27.251)" fill="#fff"/>
      <path id="Tracé_21" data-name="Tracé 21" d="M143.369,20.428q13.9,11.778,13.9,36.268v53.786H119.006V97.3c-4.72,9.992-14.2,15.009-28.317,15.009a45.325,45.325,0,0,1-20.2-4.252A28.913,28.913,0,0,1,53.485,81.1,25.511,25.511,0,0,1,64.795,58.61q11.353-7.738,34.4-7.7h16.625q-2-11.65-18.836-11.693A46.771,46.771,0,0,0,83.29,41.3a38.267,38.267,0,0,0-11.905,5.783L58.247,19.833A73.175,73.175,0,0,1,79,11.329,100.642,100.642,0,0,1,103.231,8.31C120.707,8.608,134.143,12.562,143.369,20.428ZM111.055,85.056a13.351,13.351,0,0,0,5.1-7.143V70.983h-10.2q-12.756,0-12.756,8.5a7.356,7.356,0,0,0,2.636,5.74,10.757,10.757,0,0,0,7.228,2.3,13.649,13.649,0,0,0,7.994-2.466Z" transform="translate(173.821 27.023)" fill="#fff"/>
      <path id="Tracé_22" data-name="Tracé 22" d="M133.684,42.944h21.77V73.132H134.959v64.373H93.631V73.132H79.94V42.944H93.631v-.425a41.371,41.371,0,0,1,11.693-31Q117.059,0,138.233,0A71.559,71.559,0,0,1,151.8,1.276a38.99,38.99,0,0,1,10.97,3.657l-9.907,28.7a22.492,22.492,0,0,0-9.312-2.381,9.524,9.524,0,0,0-7.228,2.764,12.458,12.458,0,0,0-2.636,8.5Z" transform="translate(259.955 0)" fill="#fff"/>
      <path id="Tracé_23" data-name="Tracé 23" d="M183.174,122.54a51.447,51.447,0,0,1-25.511,5.315q-21.259,0-32.357-10.162T113.954,87.249V61.738H100.22V31.465h13.734V3.53h41.328V31.465h20.537V61.653H155.409V86.867a9.949,9.949,0,0,0,2.381,7.143A8.079,8.079,0,0,0,164,96.561a16.115,16.115,0,0,0,9.312-2.721Z" transform="translate(325.903 11.479)" fill="#fff"/>
      <path id="Tracé_24" data-name="Tracé 24" d="M128.223,62.192a22.79,22.79,0,0,1-6.888-17.007,22.2,22.2,0,0,1,6.888-17.007,26.149,26.149,0,0,1,34.525,0,22.2,22.2,0,0,1,6.888,17.007,22.79,22.79,0,0,1-6.888,17.007,25.511,25.511,0,0,1-34.525,0Z" transform="translate(394.503 70.466)" fill="#d83030"/>
    </g>
  </g>
</svg>
