<svg xmlns="http://www.w3.org/2000/svg" width="63.143" height="53.158" viewBox="0 0 63.143 53.158">
  <g id="Groupe_153" data-name="Groupe 153" transform="translate(-553.706 -968.274)">
    <g id="Groupe_130" data-name="Groupe 130" transform="translate(572.627 979.926)">
      <g id="Groupe_129" data-name="Groupe 129">
        <path id="Tracé_139" data-name="Tracé 139" d="M132.646,131.631h-2.1v-5.318a9.125,9.125,0,0,0-7.526-9.1,8.965,8.965,0,0,0-10.357,8.831v5.589h-2.1a1.252,1.252,0,0,0-1.252,1.252v18.733a1.252,1.252,0,0,0,1.252,1.252h22.087a1.252,1.252,0,0,0,1.252-1.252V132.883A1.252,1.252,0,0,0,132.646,131.631Zm-9.926,11.529v3.245a.873.873,0,0,1-.874.874h-.488a.873.873,0,0,1-.874-.874v-3.239a.839.839,0,0,0-.436-.761,3.275,3.275,0,0,1-1.781-3.315,3.388,3.388,0,0,1,3.281-2.988,3.294,3.294,0,0,1,3.406,3.352,3.258,3.258,0,0,1-1.8,2.952A.833.833,0,0,0,122.721,143.16Zm5.589-11.529H114.9v-5.589a6.706,6.706,0,0,1,13.413,0Z" transform="translate(-109.308 -117.101)"/>
      </g>
    </g>
    <path id="Tracé_140" data-name="Tracé 140" d="M145.643,162.931a30.571,30.571,0,1,1,.211-46.12" transform="translate(725.057 874.167) rotate(90)" fill="none" stroke="#000" stroke-linecap="round" stroke-miterlimit="10" stroke-width="2"/>
  </g>
</svg>
