<svg xmlns="http://www.w3.org/2000/svg" width="63.079" height="53.105" viewBox="0 0 63.079 53.105">
  <g id="Groupe_154" data-name="Groupe 154" transform="translate(-553.711 -1139.3)">
    <path id="Tracé_141" data-name="Tracé 141" d="M145.59,238.333a30.539,30.539,0,1,1,.211-46.072" transform="translate(800.457 1045.193) rotate(90)" fill="none" stroke="#000" stroke-linecap="round" stroke-miterlimit="10" stroke-width="2"/>
    <g id="Groupe_133" data-name="Groupe 133" transform="translate(567.064 1155.589)">
      <g id="Groupe_132" data-name="Groupe 132" transform="translate(0 0)">
        <g id="Groupe_131" data-name="Groupe 131">
          <path id="Tracé_142" data-name="Tracé 142" d="M114.736,214.725c-.113,0-.19-.039-.3-.039l-4.719-1.9v7.078l11.226,4.529V210.957l-5.746,3.616A.735.735,0,0,1,114.736,214.725Z" transform="translate(-103.663 -195.66)"/>
          <path id="Tracé_143" data-name="Tracé 143" d="M126.194,214.717a.763.763,0,0,1-.418-.115l-5.746-3.614v13.395l11.226-4.529v-7.115l-4.719,1.9A1.132,1.132,0,0,1,126.194,214.717Z" transform="translate(-101.117 -195.653)"/>
          <path id="Tracé_144" data-name="Tracé 144" d="M121.474,202.2l-10.693,4.3,10.693,4.3,10.655-4.3Z" transform="translate(-103.399 -197.822)"/>
          <path id="Tracé_145" data-name="Tracé 145" d="M121.147,210.793l-10.959-4.414-5.327,3.311,11,4.452Z" transform="translate(-104.86 -196.79)"/>
          <path id="Tracé_146" data-name="Tracé 146" d="M120.793,210.793l5.289,3.349,11-4.452-5.327-3.311Z" transform="translate(-100.929 -196.79)"/>
          <path id="Tracé_147" data-name="Tracé 147" d="M137.079,203.1l-11-4.414L120.793,202l10.959,4.452Z" transform="translate(-100.929 -198.688)"/>
          <path id="Tracé_148" data-name="Tracé 148" d="M121.147,202l-5.289-3.311-11,4.414,5.327,3.349Z" transform="translate(-104.86 -198.688)"/>
        </g>
      </g>
    </g>
  </g>
</svg>
