<svg xmlns="http://www.w3.org/2000/svg" width="63.016" height="53.052" viewBox="0 0 63.016 53.052">
  <g id="Groupe_155" data-name="Groupe 155" transform="translate(-551.433 -1311.327)">
    <path id="Tracé_149" data-name="Tracé 149" d="M144.975,313.735a30.508,30.508,0,1,1,.21-46.024" transform="translate(873.572 1217.783) rotate(90)" fill="none" stroke="#000" stroke-linecap="round" stroke-miterlimit="10" stroke-width="2"/>
    <g id="Groupe_135" data-name="Groupe 135" transform="translate(565.423 1327.504)">
      <g id="Groupe_134" data-name="Groupe 134" transform="translate(-1.969 2.823)">
        <path id="Tracé_150" data-name="Tracé 150" d="M104.021,280.536a.622.622,0,0,0,.621.623h4.193v-1.244h-4.193A.621.621,0,0,0,104.021,280.536Zm1.866,4.765a.621.621,0,1,1,0-1.243h2.949V285.3Zm1.244,4.143a.622.622,0,0,1,0-1.244h1.7v1.244Zm26.893-5.386h5.848l2.1,3.881c.075.137.137.273.2.416H134.7ZM135.05,295.4a2,2,0,0,1,2,1.866.6.6,0,0,1,0,.1,2.01,2.01,0,1,1-4.013,0,.6.6,0,0,1,0-.1A2,2,0,0,1,135.05,295.4Zm-21.773,1.9a2,2,0,0,1,4,0h0a.522.522,0,0,1,0,.093,2.01,2.01,0,1,1-4.013,0,.522.522,0,0,1,0-.093Zm25.9-14.556v.062h-5.9a.621.621,0,0,0-.628.614.485.485,0,0,0,.007.1l.839,5.543a.622.622,0,0,0,.623.529h8.4a4.863,4.863,0,0,1,.08.9v3.427h-1.53a.622.622,0,0,0,0,1.244h1.53v.759a2,2,0,0,1-1.99,1.967h-2.364a2.371,2.371,0,0,0,.05-.523,2.739,2.739,0,0,0-.05-.721,3.24,3.24,0,0,0-6.345,0,3.01,3.01,0,0,0-.087.721,2.37,2.37,0,0,0,.05.523h-.71V280.979h5.071A3.344,3.344,0,0,1,139.174,282.752Zm-20.845-2.215a.622.622,0,0,0-.623-.621h-8.9v-1.449a2,2,0,0,1,1.99-1.99h17.107a1.991,1.991,0,0,1,1.992,1.99h0v19.427H118.472a2.373,2.373,0,0,0,.05-.523,3.011,3.011,0,0,0-.087-.721,3.241,3.241,0,0,0-6.327,0,3.158,3.158,0,0,0-.087.721,2.551,2.551,0,0,0,.05.523h-2.612a.623.623,0,0,1-.623-.623v-7.826h8.87a.622.622,0,1,0,0-1.244h-8.9v-2.9h8.9a.621.621,0,1,0,0-1.243h-8.9v-2.9h8.9A.623.623,0,0,0,118.329,280.536Z" transform="translate(-104.021 -276.475)"/>
      </g>
    </g>
  </g>
</svg>
